<mxfile host="app.diagrams.net" modified="2023-05-27T02:58:01.870Z" agent="Mozilla/5.0 (Windows NT 10.0; Win64; x64; rv:102.0) Gecko/20100101 Firefox/102.0" etag="21Qk9-eMefiVYsjN7QZX" version="21.3.4" type="onedrive">
  <diagram id="a6Cck1g9hPxQS67mMN-J" name="Page-1">
    <mxGraphModel grid="0" page="1" gridSize="10" guides="1" tooltips="1" connect="1" arrows="1" fold="1" pageScale="1" pageWidth="850" pageHeight="1100" math="1" shadow="0">
      <root>
        <mxCell id="0" />
        <mxCell id="1" parent="0" />
        <mxCell id="JwH7_-hSPn-jCVah3qCO-198" value="" style="group" connectable="0" vertex="1" parent="1">
          <mxGeometry x="7.619999999999997" y="23" width="415.38" height="579" as="geometry" />
        </mxCell>
        <mxCell id="k6WwvUgcT5J0t6ogA-fB-32" value="" style="group;rotation=0;fontSize=18;" vertex="1" connectable="0" parent="JwH7_-hSPn-jCVah3qCO-198">
          <mxGeometry x="207.5" y="399" width="156" height="180" as="geometry" />
        </mxCell>
        <mxCell id="JnH83_9ppm5Isyr2-d8q-1" style="edgeStyle=orthogonalEdgeStyle;rounded=0;orthogonalLoop=1;jettySize=auto;html=1;exitX=0.5;exitY=1;exitDx=0;exitDy=0;fontSize=18;" edge="1" parent="k6WwvUgcT5J0t6ogA-fB-32">
          <mxGeometry relative="1" as="geometry">
            <mxPoint x="70" y="150" as="sourcePoint" />
            <mxPoint x="70" y="150" as="targetPoint" />
          </mxGeometry>
        </mxCell>
        <mxCell id="JnH83_9ppm5Isyr2-d8q-2" value="&lt;font style=&quot;font-size: 18px;&quot; face=&quot;Helvetica&quot;&gt;LSTM&lt;/font&gt;" style="rounded=1;whiteSpace=wrap;html=1;fillColor=#ffe6cc;strokeColor=#d79b00;rotation=0;fontSize=18;" vertex="1" parent="k6WwvUgcT5J0t6ogA-fB-32">
          <mxGeometry width="140" height="40" as="geometry" />
        </mxCell>
        <mxCell id="JnH83_9ppm5Isyr2-d8q-3" value="Conv" style="rounded=1;whiteSpace=wrap;html=1;fillColor=#ffe6cc;strokeColor=#d79b00;rotation=0;fontSize=18;" vertex="1" parent="k6WwvUgcT5J0t6ogA-fB-32">
          <mxGeometry y="70" width="140" height="40" as="geometry" />
        </mxCell>
        <mxCell id="JnH83_9ppm5Isyr2-d8q-4" value="" style="edgeStyle=orthogonalEdgeStyle;rounded=0;orthogonalLoop=1;jettySize=auto;html=1;fontSize=18;" edge="1" parent="k6WwvUgcT5J0t6ogA-fB-32" source="JnH83_9ppm5Isyr2-d8q-3" target="JnH83_9ppm5Isyr2-d8q-2">
          <mxGeometry relative="1" as="geometry" />
        </mxCell>
        <mxCell id="k6WwvUgcT5J0t6ogA-fB-39" value="&lt;font style=&quot;font-size: 20px;&quot; face=&quot;Helvetica&quot;&gt;$$F_{T}^{S}$$&lt;/font&gt;" style="text;html=1;strokeColor=none;fillColor=none;align=center;verticalAlign=middle;whiteSpace=wrap;rounded=0;shadow=0;glass=0;sketch=0;fontSize=18;rotation=0;" vertex="1" parent="k6WwvUgcT5J0t6ogA-fB-32">
          <mxGeometry x="35" y="150" width="70" height="30" as="geometry" />
        </mxCell>
        <mxCell id="HZ-Xd89VrN8wMB0TBjl1-7" value="&lt;font style=&quot;font-size: 17px;&quot; face=&quot;Helvetica&quot;&gt;$$[J_{1},... , J_{i}]$$&lt;/font&gt;" style="text;html=1;strokeColor=none;fillColor=none;align=center;verticalAlign=middle;whiteSpace=wrap;rounded=0;shadow=0;glass=0;sketch=0;fontSize=16;rotation=0;" vertex="1" parent="k6WwvUgcT5J0t6ogA-fB-32">
          <mxGeometry x="87" y="41" width="70" height="30" as="geometry" />
        </mxCell>
        <mxCell id="k6WwvUgcT5J0t6ogA-fB-40" value="" style="swimlane;startSize=0;rounded=1;shadow=0;glass=0;sketch=0;fontSize=18;strokeWidth=1;fillColor=none;gradientColor=none;dashed=1;rotation=0;" vertex="1" parent="JwH7_-hSPn-jCVah3qCO-198">
          <mxGeometry x="197.5" y="389" width="182.5" height="130" as="geometry">
            <mxRectangle x="320" y="210" width="50" height="40" as="alternateBounds" />
          </mxGeometry>
        </mxCell>
        <mxCell id="k6WwvUgcT5J0t6ogA-fB-44" value="" style="swimlane;startSize=0;rounded=1;shadow=0;glass=0;sketch=0;fontSize=18;strokeWidth=1;fillColor=none;gradientColor=none;dashed=1;rotation=0;" vertex="1" parent="JwH7_-hSPn-jCVah3qCO-198">
          <mxGeometry x="12.5" y="390" width="160" height="130" as="geometry">
            <mxRectangle x="320" y="210" width="50" height="40" as="alternateBounds" />
          </mxGeometry>
        </mxCell>
        <mxCell id="YbxbGNSjSYR2NM2Yrszk-1" value="" style="group;rotation=0;fontSize=18;" connectable="0" vertex="1" parent="k6WwvUgcT5J0t6ogA-fB-44">
          <mxGeometry x="10" y="10" width="140" height="180" as="geometry" />
        </mxCell>
        <mxCell id="YbxbGNSjSYR2NM2Yrszk-2" style="edgeStyle=orthogonalEdgeStyle;rounded=0;orthogonalLoop=1;jettySize=auto;html=1;exitX=0.5;exitY=1;exitDx=0;exitDy=0;fontSize=18;" edge="1" parent="YbxbGNSjSYR2NM2Yrszk-1">
          <mxGeometry relative="1" as="geometry">
            <mxPoint x="70" y="150" as="sourcePoint" />
            <mxPoint x="70" y="150" as="targetPoint" />
          </mxGeometry>
        </mxCell>
        <mxCell id="YbxbGNSjSYR2NM2Yrszk-4" value="Bi-LSTM" style="rounded=1;whiteSpace=wrap;html=1;fillColor=#ffe6cc;strokeColor=#d79b00;rotation=0;fontSize=18;" vertex="1" parent="YbxbGNSjSYR2NM2Yrszk-1">
          <mxGeometry y="34" width="140" height="40" as="geometry" />
        </mxCell>
        <mxCell id="YbxbGNSjSYR2NM2Yrszk-123" value="&lt;font style=&quot;font-size: 20px;&quot; face=&quot;Helvetica&quot;&gt;$$F_{W}^{S}$$&lt;/font&gt;" style="text;html=1;strokeColor=none;fillColor=none;align=center;verticalAlign=middle;whiteSpace=wrap;rounded=0;shadow=0;glass=0;sketch=0;fontSize=18;rotation=0;" vertex="1" parent="YbxbGNSjSYR2NM2Yrszk-1">
          <mxGeometry x="35" y="150" width="70" height="30" as="geometry" />
        </mxCell>
        <mxCell id="0NZ9cc7dHBJupp9qLAGi-3" value="" style="endArrow=classic;html=1;rounded=0;fontSize=18;entryX=0.5;entryY=1;entryDx=0;entryDy=0;" edge="1" parent="YbxbGNSjSYR2NM2Yrszk-1" target="YbxbGNSjSYR2NM2Yrszk-4">
          <mxGeometry width="50" height="50" relative="1" as="geometry">
            <mxPoint x="70" y="154" as="sourcePoint" />
            <mxPoint x="70" y="94" as="targetPoint" />
          </mxGeometry>
        </mxCell>
        <mxCell id="k6WwvUgcT5J0t6ogA-fB-45" value="" style="endArrow=classic;html=1;rounded=0;fontSize=18;entryX=0.5;entryY=1;entryDx=0;entryDy=0;" edge="1" parent="JwH7_-hSPn-jCVah3qCO-198" target="JnH83_9ppm5Isyr2-d8q-3">
          <mxGeometry width="50" height="50" relative="1" as="geometry">
            <mxPoint x="277.5" y="553" as="sourcePoint" />
            <mxPoint x="277.5" y="512" as="targetPoint" />
          </mxGeometry>
        </mxCell>
        <mxCell id="k6WwvUgcT5J0t6ogA-fB-47" value="&lt;font style=&quot;font-size: 17px;&quot; face=&quot;Helvetica&quot;&gt;Channel B&lt;/font&gt;" style="text;html=1;strokeColor=none;fillColor=none;align=center;verticalAlign=middle;whiteSpace=wrap;rounded=0;shadow=0;glass=0;dashed=1;sketch=0;fontSize=17;direction=west;rotation=-90;" vertex="1" parent="JwH7_-hSPn-jCVah3qCO-198">
          <mxGeometry x="343.5" y="446" width="90" height="9" as="geometry" />
        </mxCell>
        <mxCell id="k6WwvUgcT5J0t6ogA-fB-48" value="&lt;font style=&quot;font-size: 17px;&quot; face=&quot;Helvetica&quot;&gt;Channel A&lt;/font&gt;" style="text;html=1;strokeColor=none;fillColor=none;align=center;verticalAlign=middle;whiteSpace=wrap;rounded=0;shadow=0;glass=0;dashed=1;sketch=0;fontSize=17;direction=west;rotation=-90;" vertex="1" parent="JwH7_-hSPn-jCVah3qCO-198">
          <mxGeometry x="-40.5" y="452" width="90" height="9" as="geometry" />
        </mxCell>
        <mxCell id="YbxbGNSjSYR2NM2Yrszk-6" value="" style="endArrow=classic;html=1;rounded=0;exitX=0.5;exitY=0;exitDx=0;exitDy=0;endFill=1;entryX=0.76;entryY=1.006;entryDx=0;entryDy=0;entryPerimeter=0;fontSize=18;" edge="1" parent="JwH7_-hSPn-jCVah3qCO-198" source="JnH83_9ppm5Isyr2-d8q-2" target="JwH7_-hSPn-jCVah3qCO-164">
          <mxGeometry width="50" height="50" relative="1" as="geometry">
            <mxPoint x="277.5" y="357" as="sourcePoint" />
            <mxPoint x="277.24" y="331.5999999999999" as="targetPoint" />
          </mxGeometry>
        </mxCell>
        <mxCell id="0NZ9cc7dHBJupp9qLAGi-1" value="" style="endArrow=classic;html=1;rounded=0;fontSize=18;exitX=0.5;exitY=0;exitDx=0;exitDy=0;endFill=1;entryX=0.2;entryY=1.033;entryDx=0;entryDy=0;entryPerimeter=0;startArrow=none;startFill=0;" edge="1" parent="JwH7_-hSPn-jCVah3qCO-198" source="YbxbGNSjSYR2NM2Yrszk-4" target="JwH7_-hSPn-jCVah3qCO-164">
          <mxGeometry width="50" height="50" relative="1" as="geometry">
            <mxPoint x="92.5" y="405" as="sourcePoint" />
            <mxPoint x="92.76999999999998" y="330.52" as="targetPoint" />
          </mxGeometry>
        </mxCell>
        <mxCell id="HZ-Xd89VrN8wMB0TBjl1-4" value="&lt;font style=&quot;font-size: 17px;&quot; face=&quot;Helvetica&quot;&gt;$$[h_{1}^{B},... , h_{t}^{B}]$$&lt;/font&gt;" style="text;html=1;strokeColor=none;fillColor=none;align=center;verticalAlign=middle;whiteSpace=wrap;rounded=0;shadow=0;glass=0;sketch=0;fontSize=16;rotation=0;" vertex="1" parent="JwH7_-hSPn-jCVah3qCO-198">
          <mxGeometry x="298.5" y="359" width="70" height="30" as="geometry" />
        </mxCell>
        <mxCell id="HZ-Xd89VrN8wMB0TBjl1-5" value="&lt;font style=&quot;font-size: 17px;&quot; face=&quot;Helvetica&quot;&gt;$$[h_{1}^{A},... , h_{t}^{A}]$$&lt;/font&gt;" style="text;html=1;strokeColor=none;fillColor=none;align=center;verticalAlign=middle;whiteSpace=wrap;rounded=0;shadow=0;glass=0;sketch=0;fontSize=16;rotation=0;" vertex="1" parent="JwH7_-hSPn-jCVah3qCO-198">
          <mxGeometry x="111.5" y="360" width="70" height="30" as="geometry" />
        </mxCell>
        <mxCell id="JwH7_-hSPn-jCVah3qCO-159" value="" style="ellipse;whiteSpace=wrap;html=1;aspect=fixed;rounded=1;shadow=0;glass=0;sketch=0;strokeWidth=1;fillColor=#ffe6cc;strokeColor=#d79b00;rotation=0;fontSize=18;" vertex="1" parent="JwH7_-hSPn-jCVah3qCO-198">
          <mxGeometry x="173.5" y="59" width="35" height="35" as="geometry" />
        </mxCell>
        <mxCell id="JwH7_-hSPn-jCVah3qCO-160" value="" style="endArrow=classic;html=1;rounded=0;fontSize=18;exitX=0.5;exitY=0;exitDx=0;exitDy=0;" edge="1" parent="JwH7_-hSPn-jCVah3qCO-198" source="JwH7_-hSPn-jCVah3qCO-159">
          <mxGeometry width="50" height="50" relative="1" as="geometry">
            <mxPoint x="664.5" y="150" as="sourcePoint" />
            <mxPoint x="191.5" y="32" as="targetPoint" />
          </mxGeometry>
        </mxCell>
        <mxCell id="JwH7_-hSPn-jCVah3qCO-161" value="&lt;font style=&quot;font-size: 20px;&quot; face=&quot;Helvetica&quot;&gt;$$F_{P}^{S}$$&lt;/font&gt;" style="text;html=1;strokeColor=none;fillColor=none;align=center;verticalAlign=middle;whiteSpace=wrap;rounded=0;shadow=0;glass=0;dashed=1;sketch=0;fontSize=18;rotation=0;" vertex="1" parent="JwH7_-hSPn-jCVah3qCO-198">
          <mxGeometry x="161.5" width="60" height="30" as="geometry" />
        </mxCell>
        <mxCell id="JwH7_-hSPn-jCVah3qCO-162" value="&lt;font style=&quot;font-size: 17px;&quot; face=&quot;Helvetica&quot;&gt;Prediction layer&lt;/font&gt;&lt;font style=&quot;font-size: 17px;&quot; face=&quot;Helvetica&quot;&gt;&lt;br style=&quot;font-size: 17px;&quot;&gt;&lt;/font&gt;" style="text;html=1;strokeColor=none;fillColor=none;align=center;verticalAlign=middle;whiteSpace=wrap;rounded=0;shadow=0;glass=0;dashed=1;sketch=0;fontSize=17;direction=west;rotation=-90;" vertex="1" parent="JwH7_-hSPn-jCVah3qCO-198">
          <mxGeometry x="-47.62" y="162.88" width="122.25" height="9" as="geometry" />
        </mxCell>
        <mxCell id="JwH7_-hSPn-jCVah3qCO-163" value="" style="swimlane;startSize=0;rounded=1;shadow=0;glass=0;sketch=0;fontSize=18;strokeWidth=1;fillColor=none;gradientColor=none;dashed=1;rotation=0;" vertex="1" parent="JwH7_-hSPn-jCVah3qCO-198">
          <mxGeometry x="21.5" width="339" height="356" as="geometry">
            <mxRectangle x="320" y="210" width="50" height="40" as="alternateBounds" />
          </mxGeometry>
        </mxCell>
        <mxCell id="JwH7_-hSPn-jCVah3qCO-164" value="" style="rounded=1;whiteSpace=wrap;html=1;shadow=0;glass=0;sketch=0;strokeWidth=1;fillColor=#d5e8d4;strokeColor=#82b366;rotation=0;fontSize=18;" vertex="1" parent="JwH7_-hSPn-jCVah3qCO-163">
          <mxGeometry x="5" y="301" width="330" height="40" as="geometry" />
        </mxCell>
        <mxCell id="JwH7_-hSPn-jCVah3qCO-165" value="&lt;font style=&quot;font-size: 18px;&quot;&gt;Concatenation&lt;/font&gt;" style="text;html=1;strokeColor=none;fillColor=none;align=center;verticalAlign=middle;whiteSpace=wrap;rounded=0;shadow=0;glass=0;sketch=0;rotation=0;fontSize=18;" vertex="1" parent="JwH7_-hSPn-jCVah3qCO-163">
          <mxGeometry x="112" y="305" width="115.5" height="30" as="geometry" />
        </mxCell>
        <mxCell id="JwH7_-hSPn-jCVah3qCO-166" value="" style="rounded=1;whiteSpace=wrap;html=1;shadow=0;glass=0;sketch=0;strokeWidth=1;fillColor=#d5e8d4;strokeColor=#82b366;rotation=0;fontSize=18;" vertex="1" parent="JwH7_-hSPn-jCVah3qCO-163">
          <mxGeometry x="4" y="140" width="330" height="40" as="geometry" />
        </mxCell>
        <mxCell id="JwH7_-hSPn-jCVah3qCO-167" value="" style="ellipse;whiteSpace=wrap;html=1;aspect=fixed;rounded=1;shadow=0;glass=0;sketch=0;strokeWidth=1;fillColor=#ffe6cc;strokeColor=#d79b00;rotation=0;fontSize=18;" vertex="1" parent="JwH7_-hSPn-jCVah3qCO-163">
          <mxGeometry x="13" y="143" width="35" height="35" as="geometry" />
        </mxCell>
        <mxCell id="JwH7_-hSPn-jCVah3qCO-168" value="" style="ellipse;whiteSpace=wrap;html=1;aspect=fixed;rounded=1;shadow=0;glass=0;sketch=0;strokeWidth=1;fillColor=#ffe6cc;strokeColor=#d79b00;rotation=0;fontSize=18;" vertex="1" parent="JwH7_-hSPn-jCVah3qCO-163">
          <mxGeometry x="67" y="143" width="35" height="35" as="geometry" />
        </mxCell>
        <mxCell id="JwH7_-hSPn-jCVah3qCO-169" value="" style="ellipse;whiteSpace=wrap;html=1;aspect=fixed;rounded=1;shadow=0;glass=0;sketch=0;strokeWidth=1;fillColor=#ffe6cc;strokeColor=#d79b00;rotation=0;fontSize=18;" vertex="1" parent="JwH7_-hSPn-jCVah3qCO-163">
          <mxGeometry x="125" y="143" width="35" height="35" as="geometry" />
        </mxCell>
        <mxCell id="JwH7_-hSPn-jCVah3qCO-170" value="" style="ellipse;whiteSpace=wrap;html=1;aspect=fixed;rounded=1;shadow=0;glass=0;sketch=0;strokeWidth=1;fillColor=#ffe6cc;strokeColor=#d79b00;rotation=0;fontSize=18;" vertex="1" parent="JwH7_-hSPn-jCVah3qCO-163">
          <mxGeometry x="288" y="143" width="35" height="35" as="geometry" />
        </mxCell>
        <mxCell id="JwH7_-hSPn-jCVah3qCO-171" value="" style="group;rotation=0;fontSize=18;" connectable="0" vertex="1" parent="JwH7_-hSPn-jCVah3qCO-163">
          <mxGeometry x="195" y="155" width="50" height="10" as="geometry" />
        </mxCell>
        <mxCell id="JwH7_-hSPn-jCVah3qCO-172" value="" style="ellipse;whiteSpace=wrap;html=1;aspect=fixed;rounded=1;shadow=0;glass=0;sketch=0;strokeWidth=1;fillColor=#ffe6cc;strokeColor=#d79b00;rotation=0;fontSize=18;" vertex="1" parent="JwH7_-hSPn-jCVah3qCO-171">
          <mxGeometry width="10" height="10" as="geometry" />
        </mxCell>
        <mxCell id="JwH7_-hSPn-jCVah3qCO-173" value="" style="ellipse;whiteSpace=wrap;html=1;aspect=fixed;rounded=1;shadow=0;glass=0;sketch=0;strokeWidth=1;fillColor=#ffe6cc;strokeColor=#d79b00;rotation=0;fontSize=18;" vertex="1" parent="JwH7_-hSPn-jCVah3qCO-171">
          <mxGeometry x="20" width="10" height="10" as="geometry" />
        </mxCell>
        <mxCell id="JwH7_-hSPn-jCVah3qCO-174" value="" style="ellipse;whiteSpace=wrap;html=1;aspect=fixed;rounded=1;shadow=0;glass=0;sketch=0;strokeWidth=1;fillColor=#ffe6cc;strokeColor=#d79b00;rotation=0;fontSize=18;" vertex="1" parent="JwH7_-hSPn-jCVah3qCO-171">
          <mxGeometry x="40" width="10" height="10" as="geometry" />
        </mxCell>
        <mxCell id="JwH7_-hSPn-jCVah3qCO-176" value="" style="rounded=1;whiteSpace=wrap;html=1;shadow=0;glass=0;sketch=0;strokeWidth=1;fillColor=#f8cecc;strokeColor=#b85450;rotation=0;fontSize=18;" vertex="1" parent="JwH7_-hSPn-jCVah3qCO-163">
          <mxGeometry x="4.75" y="229" width="330" height="40" as="geometry" />
        </mxCell>
        <mxCell id="JwH7_-hSPn-jCVah3qCO-177" value="&lt;font style=&quot;font-size: 18px;&quot;&gt;Self-Attention&lt;/font&gt;" style="text;html=1;strokeColor=none;fillColor=none;align=center;verticalAlign=middle;whiteSpace=wrap;rounded=0;shadow=0;glass=0;sketch=0;rotation=0;fontSize=18;" vertex="1" parent="JwH7_-hSPn-jCVah3qCO-163">
          <mxGeometry x="112" y="234" width="115.5" height="30" as="geometry" />
        </mxCell>
        <mxCell id="JwH7_-hSPn-jCVah3qCO-179" value="&lt;font style=&quot;font-size: 18px;&quot; face=&quot;Helvetica&quot;&gt;$$\alpha_{n}$$&lt;/font&gt;" style="text;html=1;strokeColor=none;fillColor=none;align=center;verticalAlign=middle;whiteSpace=wrap;rounded=0;shadow=0;glass=0;sketch=0;fontSize=18;rotation=0;" vertex="1" parent="JwH7_-hSPn-jCVah3qCO-163">
          <mxGeometry x="292" y="148" width="31" height="25" as="geometry" />
        </mxCell>
        <mxCell id="JwH7_-hSPn-jCVah3qCO-180" value="&lt;font style=&quot;font-size: 18px;&quot; face=&quot;Helvetica&quot;&gt;$$\alpha_{3}$$&lt;/font&gt;" style="text;html=1;strokeColor=none;fillColor=none;align=center;verticalAlign=middle;whiteSpace=wrap;rounded=0;shadow=0;glass=0;sketch=0;fontSize=18;rotation=0;" vertex="1" parent="JwH7_-hSPn-jCVah3qCO-163">
          <mxGeometry x="127" y="148" width="31" height="25" as="geometry" />
        </mxCell>
        <mxCell id="JwH7_-hSPn-jCVah3qCO-181" value="&lt;font style=&quot;font-size: 18px;&quot; face=&quot;Helvetica&quot;&gt;$$\alpha_{1}$$&lt;/font&gt;" style="text;html=1;strokeColor=none;fillColor=none;align=center;verticalAlign=middle;whiteSpace=wrap;rounded=0;shadow=0;glass=0;sketch=0;fontSize=18;rotation=0;" vertex="1" parent="JwH7_-hSPn-jCVah3qCO-163">
          <mxGeometry x="15" y="148" width="31" height="25" as="geometry" />
        </mxCell>
        <mxCell id="JwH7_-hSPn-jCVah3qCO-182" value="&lt;font style=&quot;font-size: 18px;&quot; face=&quot;Helvetica&quot;&gt;$$\alpha_{2}$$&lt;/font&gt;" style="text;html=1;strokeColor=none;fillColor=none;align=center;verticalAlign=middle;whiteSpace=wrap;rounded=0;shadow=0;glass=0;sketch=0;fontSize=18;rotation=0;" vertex="1" parent="JwH7_-hSPn-jCVah3qCO-163">
          <mxGeometry x="69" y="148" width="31" height="25" as="geometry" />
        </mxCell>
        <mxCell id="ImziUbH8rqWIl5kjdOl2-2" value="" style="endArrow=classic;html=1;rounded=0;entryX=0.25;entryY=1;entryDx=0;entryDy=0;" edge="1" parent="JwH7_-hSPn-jCVah3qCO-163" target="JwH7_-hSPn-jCVah3qCO-176">
          <mxGeometry width="50" height="50" relative="1" as="geometry">
            <mxPoint x="86.88" y="300" as="sourcePoint" />
            <mxPoint x="269.88" y="208" as="targetPoint" />
          </mxGeometry>
        </mxCell>
        <mxCell id="JwH7_-hSPn-jCVah3qCO-184" style="edgeStyle=none;rounded=0;orthogonalLoop=1;jettySize=auto;html=1;exitX=0.5;exitY=0;exitDx=0;exitDy=0;entryX=0.5;entryY=1;entryDx=0;entryDy=0;endArrow=none;endFill=0;fontSize=18;" edge="1" parent="JwH7_-hSPn-jCVah3qCO-198" target="JwH7_-hSPn-jCVah3qCO-159">
          <mxGeometry relative="1" as="geometry">
            <mxPoint x="55.5" y="140" as="sourcePoint" />
          </mxGeometry>
        </mxCell>
        <mxCell id="JwH7_-hSPn-jCVah3qCO-185" style="edgeStyle=none;rounded=0;orthogonalLoop=1;jettySize=auto;html=1;exitX=0.5;exitY=0;exitDx=0;exitDy=0;endArrow=none;endFill=0;entryX=0.5;entryY=1;entryDx=0;entryDy=0;fontSize=18;" edge="1" parent="JwH7_-hSPn-jCVah3qCO-198" target="JwH7_-hSPn-jCVah3qCO-159">
          <mxGeometry relative="1" as="geometry">
            <mxPoint x="186.5" y="100" as="targetPoint" />
            <mxPoint x="110.5" y="140" as="sourcePoint" />
          </mxGeometry>
        </mxCell>
        <mxCell id="JwH7_-hSPn-jCVah3qCO-186" style="rounded=0;orthogonalLoop=1;jettySize=auto;html=1;exitX=0.5;exitY=0;exitDx=0;exitDy=0;endArrow=none;endFill=0;entryX=0.5;entryY=1;entryDx=0;entryDy=0;fontSize=18;" edge="1" parent="JwH7_-hSPn-jCVah3qCO-198" target="JwH7_-hSPn-jCVah3qCO-159">
          <mxGeometry relative="1" as="geometry">
            <mxPoint x="186.5" y="100" as="targetPoint" />
            <mxPoint x="166.5" y="140" as="sourcePoint" />
          </mxGeometry>
        </mxCell>
        <mxCell id="JwH7_-hSPn-jCVah3qCO-187" style="edgeStyle=none;rounded=0;orthogonalLoop=1;jettySize=auto;html=1;exitX=0.5;exitY=0;exitDx=0;exitDy=0;endArrow=none;endFill=0;entryX=0.5;entryY=1;entryDx=0;entryDy=0;fontSize=18;" edge="1" parent="JwH7_-hSPn-jCVah3qCO-198" target="JwH7_-hSPn-jCVah3qCO-159">
          <mxGeometry relative="1" as="geometry">
            <mxPoint x="186.5" y="100" as="targetPoint" />
            <mxPoint x="326.5" y="140" as="sourcePoint" />
          </mxGeometry>
        </mxCell>
        <mxCell id="JwH7_-hSPn-jCVah3qCO-178" value="&lt;font style=&quot;font-size: 18px;&quot; face=&quot;Helvetica&quot;&gt;$$[h_{1}^{A},..., h_{t}^{A},h_{1}^{B},...,h_{t}^{B}]$$&lt;/font&gt;" style="text;html=1;strokeColor=none;fillColor=none;align=center;verticalAlign=middle;whiteSpace=wrap;rounded=0;shadow=0;glass=0;sketch=0;fontSize=18;rotation=0;" vertex="1" parent="JwH7_-hSPn-jCVah3qCO-198">
          <mxGeometry x="189.38" y="269" width="95" height="30" as="geometry" />
        </mxCell>
        <mxCell id="JwH7_-hSPn-jCVah3qCO-183" value="&lt;font style=&quot;font-size: 18px;&quot; face=&quot;Helvetica&quot;&gt;$$[P_{1}h_{1}^{A},..., P_{t}h_{t}^{A},P_{1}h_{1}^{B},...,P_{t}h_{t}^{B}]$$&lt;/font&gt;" style="text;html=1;strokeColor=none;fillColor=none;align=center;verticalAlign=middle;whiteSpace=wrap;rounded=0;shadow=0;glass=0;sketch=0;fontSize=18;rotation=0;" vertex="1" parent="JwH7_-hSPn-jCVah3qCO-198">
          <mxGeometry x="142.38" y="195" width="130" height="30" as="geometry" />
        </mxCell>
        <mxCell id="ImziUbH8rqWIl5kjdOl2-5" value="" style="endArrow=classic;html=1;rounded=0;entryX=0.09;entryY=1.05;entryDx=0;entryDy=0;entryPerimeter=0;" edge="1" parent="JwH7_-hSPn-jCVah3qCO-198" target="JwH7_-hSPn-jCVah3qCO-166">
          <mxGeometry width="50" height="50" relative="1" as="geometry">
            <mxPoint x="55.38" y="229" as="sourcePoint" />
            <mxPoint x="105.38" y="179" as="targetPoint" />
          </mxGeometry>
        </mxCell>
      </root>
    </mxGraphModel>
  </diagram>
</mxfile>
